<svg width="20" height="20" viewBox="0 0 20 20" fill="none" xmlns="http://www.w3.org/2000/svg">
<g clip-path="url(#clip0_4683_17455)">
<path d="M10 20C15.5228 20 20 15.5228 20 10C20 4.47715 15.5228 0 10 0C4.47715 0 0 4.47715 0 10C0 15.5228 4.47715 20 10 20Z" fill="white"/>
<mask id="mask0_4683_17455" style="mask-type:luminance" maskUnits="userSpaceOnUse" x="5" y="5" width="10" height="10">
<path d="M5 5.58301H15V14.4719H5V5.58301Z" fill="white"/>
</mask>
<g mask="url(#mask0_4683_17455)">
<path d="M14.9485 12.5916L13.2979 14.3512C13.262 14.3897 13.2185 14.4203 13.1702 14.4411C13.1219 14.462 13.0699 14.4727 13.0173 14.4725H5.19213C5.16426 14.4724 5.13672 14.4664 5.11138 14.4547C5.08604 14.4431 5.0635 14.4261 5.04529 14.4049C5.0152 14.3693 4.99924 14.3238 5.00046 14.2771C5.00169 14.2305 5.02002 14.1859 5.05194 14.1519L6.7038 12.3923C6.73972 12.354 6.78309 12.3235 6.83122 12.3027C6.87936 12.2819 6.93123 12.2712 6.98363 12.2713H14.8088C14.8459 12.2716 14.8822 12.2825 14.9133 12.3028C14.9444 12.3231 14.9691 12.352 14.9844 12.3859C14.9991 12.42 15.0035 12.4576 14.9972 12.4942C14.9908 12.5307 14.9738 12.5646 14.9485 12.5916ZM13.2979 9.04832C13.262 9.00985 13.2185 8.97924 13.1702 8.95838C13.1219 8.93752 13.0699 8.92686 13.0173 8.92706H5.19213C5.16421 8.92704 5.13662 8.93307 5.11124 8.94473C5.08585 8.95639 5.06327 8.97341 5.04503 8.99463C5.01493 9.03022 4.99897 9.07571 5.0002 9.12238C5.00143 9.16905 5.01976 9.21363 5.05168 9.24757L6.7038 11.0072C6.73967 11.0455 6.78298 11.0761 6.83107 11.0969C6.87915 11.1178 6.93099 11.1285 6.98337 11.1284H14.8086C14.8364 11.1284 14.8639 11.1222 14.8892 11.1105C14.9145 11.0988 14.937 11.0818 14.9551 11.0606C14.9853 11.0251 15.0013 10.9796 15.0001 10.933C14.9989 10.8863 14.9805 10.8418 14.9485 10.8079L13.2979 9.04832ZM5.19186 7.78416H13.0173C13.0698 7.78417 13.1217 7.77342 13.1699 7.75257C13.2182 7.73172 13.2616 7.70121 13.2977 7.6629L14.9485 5.90355C14.9742 5.87647 14.9914 5.84235 14.9978 5.80549C15.0043 5.76862 14.9997 5.73066 14.9847 5.69639C14.9698 5.66212 14.945 5.63307 14.9136 5.6129C14.8822 5.59273 14.8456 5.58234 14.8083 5.58304H6.98363C6.9313 5.58311 6.87952 5.59387 6.83146 5.61467C6.7834 5.63547 6.74005 5.66588 6.70407 5.70403L5.05221 7.46365C5.02651 7.4907 5.00935 7.52477 5.00288 7.56158C4.9964 7.5984 5.00091 7.63631 5.01583 7.67056C5.03076 7.70481 5.05543 7.73386 5.08675 7.75408C5.11806 7.77429 5.15463 7.78476 5.19186 7.78416Z" fill="#9945FF"/>
</g>
</g>
<defs>
<clipPath id="clip0_4683_17455">
<rect width="20" height="20" fill="white"/>
</clipPath>
</defs>
</svg>
